<svg xmlns="http://www.w3.org/2000/svg" width="340" height="200" viewBox="0 0 340 200"><style>* { font-family: 'Segoe UI', Ubuntu, Sans-Serif }</style><rect x="1" y="1" rx="5" ry="5" height="99%" width="99.4%" stroke="#1a1b27" stroke-width="1" fill="#1a1b27"/><text x="30" y="40" style="font-size: 22px; fill: #70a5fd;">Top Languages by Code</text><path d="M250.0,58.0A60,60,0,1,1,227.937,173.796L237.13,150.548A35,35,0,1,0,250.0,83.0Z" fill="#f34b7d"/><rect x="40" y="58" width="14" height="14" rx="2" fill="#f34b7d"/><text x="62" y="70" style="font-size: 14px; fill: #38bdae;">C++ 56.0%</text><path d="M227.937,173.796A60,60,0,0,1,193.69,97.284L217.152,105.915A35,35,0,0,0,237.13,150.548Z" fill="#DA3434"/><rect x="40" y="83" width="14" height="14" rx="2" fill="#DA3434"/><text x="62" y="95" style="font-size: 14px; fill: #38bdae;">CMake 24.6%</text><path d="M193.69,97.284A60,60,0,0,1,210.24,73.065L226.807,91.788A35,35,0,0,0,217.152,105.915Z" fill="#3572A5"/><rect x="40" y="108" width="14" height="14" rx="2" fill="#3572A5"/><text x="62" y="120" style="font-size: 14px; fill: #38bdae;">Python 7.9%</text><path d="M210.24,73.065A60,60,0,0,1,234.543,60.025L240.983,84.181A35,35,0,0,0,226.807,91.788Z" fill="#00B4AB"/><rect x="40" y="133" width="14" height="14" rx="2" fill="#00B4AB"/><text x="62" y="145" style="font-size: 14px; fill: #38bdae;">Dart 7.4%</text><path d="M234.543,60.025A60,60,0,0,1,250.0,58.0L250.0,83.0A35,35,0,0,0,240.983,84.181Z" fill="#555555"/><rect x="40" y="158" width="14" height="14" rx="2" fill="#555555"/><text x="62" y="170" style="font-size: 14px; fill: #38bdae;">C 4.1%</text></svg>
