<svg xmlns="http://www.w3.org/2000/svg" width="340" height="200" viewBox="0 0 340 200"><style>* { font-family: 'Segoe UI', Ubuntu, Sans-Serif }</style><rect x="1" y="1" rx="5" ry="5" height="99%" width="99.4%" stroke="#12061b" stroke-width="1" fill="#12061b"/><text x="30" y="40" style="font-size: 22px; fill: #c77dff;">Top Languages by Code</text><path d="M250.0,58.0A60,60,0,1,1,240.29,177.209L244.336,152.539A35,35,0,1,0,250.0,83.0Z" fill="#f34b7d"/><rect x="40" y="58" width="14" height="14" rx="2" fill="#f34b7d"/><text x="62" y="70" style="font-size: 14px; fill: #e0aaff;">C++ 52.6%</text><path d="M240.29,177.209A60,60,0,0,1,196.064,91.715L218.537,102.667A35,35,0,0,0,244.336,152.539Z" fill="#DA3434"/><rect x="40" y="83" width="14" height="14" rx="2" fill="#DA3434"/><text x="62" y="95" style="font-size: 14px; fill: #e0aaff;">CMake 29.6%</text><path d="M196.064,91.715A60,60,0,0,1,219.974,66.054L232.485,87.698A35,35,0,0,0,218.537,102.667Z" fill="#00B4AB"/><rect x="40" y="108" width="14" height="14" rx="2" fill="#00B4AB"/><text x="62" y="120" style="font-size: 14px; fill: #e0aaff;">Dart 9.4%</text><path d="M219.974,66.054A60,60,0,0,1,236.504,59.538L242.127,83.897A35,35,0,0,0,232.485,87.698Z" fill="#3572A5"/><rect x="40" y="133" width="14" height="14" rx="2" fill="#3572A5"/><text x="62" y="145" style="font-size: 14px; fill: #e0aaff;">Python 4.7%</text><path d="M236.504,59.538A60,60,0,0,1,250.0,58.0L250.0,83.0A35,35,0,0,0,242.127,83.897Z" fill="#555555"/><rect x="40" y="158" width="14" height="14" rx="2" fill="#555555"/><text x="62" y="170" style="font-size: 14px; fill: #e0aaff;">C 3.6%</text></svg>
